<?xml version="1.0" encoding="UTF-8"?><svg id="b" xmlns="http://www.w3.org/2000/svg" width="68.6455" height="61.3829" xmlns:xlink="http://www.w3.org/1999/xlink" viewBox="0 0 68.6455 61.3829"><defs><clipPath id="d"><path d="m55.8245,22.3439c-.026,14.478-11.741,26.192-26.219,26.219h-6.978v12.806h6.694c.095.004.188.014.284.014,21.563-.004,39.035-17.475,39.04-39.039,0-3.54-2.87-6.41-6.411-6.41s-6.41,2.87-6.41,6.41" fill="none" stroke-width="0"/></clipPath><linearGradient id="e" x1="-442.2051" y1="239.1239" x2="-441.2059" y2="239.1239" gradientTransform="translate(28636.8205 15516.9206) scale(64.7291 -64.7291)" gradientUnits="userSpaceOnUse"><stop offset="0" stop-color="#2a2a2a"/><stop offset=".645" stop-color="#4a37af"/><stop offset="1" stop-color="#5b3ff5"/></linearGradient></defs><g id="c"><path d="m41.275,11.8104c2.898-2.184,3.479-6.302,1.297-9.197-2.182-2.896-6.3-3.473-9.199-1.289-2.898,2.183-3.478,6.301-1.296,9.197,2.181,2.895,6.3,3.473,9.198,1.289" fill="#5b3ff5" stroke-width="0"/><path d="m10.5196,11.8104c2.898-2.184,3.479-6.302,1.297-9.197C9.6346-.2826,5.5166-.8596,2.6176,1.3244-.2804,3.5074-.8604,7.6254,1.3216,10.5214c2.181,2.895,6.3,3.473,9.198,1.289" fill="#5b3ff5" stroke-width="0"/><g clip-path="url(#d)"><rect x="13.2981" y="6.32" width="64.6769" height="64.6769" transform="translate(-13.969 43.5927) rotate(-45)" fill="url(#e)" stroke-width="0"/></g></g></svg>