<?xml version="1.0" encoding="utf-8"?>
<!-- Generator: Adobe Illustrator 27.1.1, SVG Export Plug-In . SVG Version: 6.00 Build 0)  -->
<svg version="1.1" id="Layer_1" xmlns="http://www.w3.org/2000/svg" xmlns:xlink="http://www.w3.org/1999/xlink" x="0px" y="0px"
	 viewBox="0 0 408.6 73.2" style="enable-background:new 0 0 408.6 73.2;" xml:space="preserve">
<style type="text/css">
	.st0{fill:#5541F0;}
	.st1{fill:#FFFFFF;}
</style>
<g>
	<path d="M49.8,72.5h13.7L40.4,9H23.1L0,72.5h13.7L18.6,58h26.3L49.8,72.5z M21.9,47.9l7.3-21.7c0.8-2.5,1.4-5.9,1.4-9
		c0-0.5,0.2-1.3,1.1-1.3c0.9,0,1.1,0.7,1.1,1.3c0.1,3.2,0.6,6.5,1.4,9l7.3,21.7H21.9z M95.4,24.1c-8.3,0-13.7,6.7-15.9,11.4
		c-0.4,0.7-0.6,1.3-1.4,1.1c-1.2-0.3-0.6-1.5-0.3-2.3c0.9-1.9,1.4-3.6,1.4-6.5v-3H67.8v47.6h11.5V53.1c0-11,6.1-18.5,12.8-18.5
		c6,0,8.8,3,8.8,13.7v24.2h11.5V44.3C112.5,30.8,105.6,24.1,95.4,24.1 M149.2,35V24.9h-13v-13h-11.5v13H116V35h8.7v22.9
		c0,11.4,4.5,14.6,14.1,14.6h10.5V62.4h-8c-4.9,0-5-0.5-5-5.7V35H149.2z M199,48c0-17.3-11.4-23.9-22.4-23.9
		c-14.5,0-23.7,9.6-23.7,24.5c0,14.1,8.5,24.5,23.9,24.5c12.7,0,19.4-7.5,21.5-17.3h-11.7c-1.4,4.2-4.1,7.2-9.6,7.2
		c-7.2,0-11.9-4.3-12.7-11.5h34.6C198.9,50.2,199,49.3,199,48 M164.6,43.6c1.2-5.7,4.5-10.1,12.3-10.1c6.7,0,10.1,4.3,10.5,10.1
		H164.6z M232.3,24.1c-8.3,0-13.7,6.7-15.9,11.4c-0.4,0.7-0.6,1.3-1.4,1.1c-1.2-0.3-0.6-1.5-0.3-2.3c0.9-1.9,1.4-3.6,1.4-6.5v-3
		h-11.5v47.6h11.5V53.1c0-11,6.1-18.5,12.8-18.5c6,0,8.8,3,8.8,13.7v24.2h11.5V44.3C249.5,30.8,242.6,24.1,232.3,24.1 M285,24.1
		c-8.3,0-13.7,6.7-15.9,11.4c-0.4,0.7-0.6,1.3-1.4,1.1c-1.2-0.3-0.6-1.5-0.3-2.3c0.9-1.9,1.4-3.6,1.4-6.5v-3h-11.5v47.6h11.5V53.1
		c0-11,6.1-18.5,12.8-18.5c6,0,8.8,3,8.8,13.7v24.2h11.5V44.3C302.1,30.8,295.3,24.1,285,24.1 M307.9,59.4c0,8,7.7,13.8,16.6,13.8
		c8.5,0,13.7-3.8,16.4-10.4c0.2-0.5,0.5-1.4,1.4-1c0.8,0.4,0.5,1.3,0.1,2.1c-0.8,1.5-1.4,3.1-1.4,5.2v3.3h11.5V46.1
		c0-18.4-9.8-22-20.7-22c-10.6,0-20.9,4.6-22.5,16.6h11.4c0.6-3.9,2.7-7.2,10.8-7.2c8.2,0,9.5,3.6,9.6,6.8c0.1,4.4-7.4,3.6-15.9,4.1
		C315.6,45,307.9,48.8,307.9,59.4 M341,47.9c-0.1,11.8-6.4,15.8-12.5,16.6c-5.3,0.7-9.1-1.8-9.1-5.8c0-4.2,2.8-6.1,7.8-6.7
		C334,51.4,338.3,50.9,341,47.9"/>
	<g>
		<path class="st0" d="M384.8,0H361v47.5h23.8c13.1,0,23.8-10.6,23.8-23.8S397.9,0,384.8,0"/>
		<polygon class="st1" points="395,17 393.2,15.2 392.4,14.3 391.5,15.1 379.4,26.9 375.3,23 374.5,22.2 373.6,23 371.8,24.9 
			371,25.7 371.9,26.6 378.5,33.1 379.4,33.9 380.2,33.1 395,18.7 395.9,17.9 		"/>
	</g>
</g>
</svg>
